<svg xmlns="http://www.w3.org/2000/svg" xmlns:xlink="http://www.w3.org/1999/xlink" width="500" zoomAndPan="magnify" viewBox="0 0 375 374.999991" height="500" preserveAspectRatio="xMidYMid meet" version="1.0"><defs><g/><clipPath id="5094bc990e"><path d="M 311.480469 95.070312 L 337.730469 95.070312 L 337.730469 121.320312 L 311.480469 121.320312 Z M 311.480469 95.070312 " clip-rule="nonzero"/></clipPath></defs><rect x="-37.5" width="450" fill="#ffffff" y="-37.499999" height="449.999989" fill-opacity="1"/><rect x="-37.5" width="450" fill="#ffffff" y="-37.499999" height="449.999989" fill-opacity="1"/><g fill="#272727" fill-opacity="1"><g transform="translate(32.801746, 230.892555)"><g><path d="M 69.78125 -74.765625 C 69.78125 -77.847656 68.800781 -80.664062 66.84375 -83.21875 C 64.882812 -85.769531 62.421875 -87.164062 59.453125 -87.40625 L 97.203125 -87.40625 C 94.941406 -87.050781 92.566406 -86.28125 90.078125 -85.09375 C 87.941406 -84.144531 85.421875 -82.75 82.515625 -80.90625 C 79.609375 -79.070312 76.609375 -76.609375 73.515625 -73.515625 L 66.21875 -66.40625 C 68.59375 -68.539062 69.78125 -71.328125 69.78125 -74.765625 Z M 88.65625 -4.984375 C 89.84375 -3.679688 91.144531 -2.523438 92.5625 -1.515625 C 93.988281 -0.503906 95.535156 0 97.203125 0 L 64.796875 0 C 63.367188 0 62.0625 -0.503906 60.875 -1.515625 C 59.6875 -2.523438 58.441406 -4.394531 57.140625 -7.125 C 55.597656 -10.320312 54.023438 -14.175781 52.421875 -18.6875 C 50.816406 -23.195312 49.210938 -27.617188 47.609375 -31.953125 C 46.015625 -36.285156 44.445312 -40.203125 42.90625 -43.703125 C 41.363281 -47.203125 39.878906 -49.546875 38.453125 -50.734375 L 38.453125 -9.796875 C 38.453125 -7.660156 39.160156 -5.582031 40.578125 -3.5625 C 42.003906 -1.539062 43.726562 -0.351562 45.75 0 L 4.453125 0 C 6.472656 -0.351562 8.191406 -1.539062 9.609375 -3.5625 C 11.035156 -5.582031 11.75 -7.660156 11.75 -9.796875 L 11.75 -110.375 C 11.75 -112.507812 11.035156 -114.582031 9.609375 -116.59375 C 8.191406 -118.613281 6.472656 -119.800781 4.453125 -120.15625 L 34.890625 -124.609375 L 35.421875 -124.609375 C 36.367188 -124.609375 37.109375 -124.3125 37.640625 -123.71875 C 38.179688 -123.125 38.453125 -122.351562 38.453125 -121.40625 L 38.453125 -50.734375 C 39.992188 -50.734375 41.742188 -51.054688 43.703125 -51.703125 C 45.660156 -52.359375 47.675781 -53.21875 49.75 -54.28125 C 51.832031 -55.351562 53.851562 -56.539062 55.8125 -57.84375 C 57.769531 -59.15625 59.578125 -60.523438 61.234375 -61.953125 C 62.546875 -61.003906 63.882812 -59.191406 65.25 -56.515625 C 66.613281 -53.847656 68.003906 -50.734375 69.421875 -47.171875 C 70.847656 -43.609375 72.300781 -39.78125 73.78125 -35.6875 C 75.269531 -31.59375 76.785156 -27.617188 78.328125 -23.765625 C 79.867188 -19.910156 81.5 -16.320312 83.21875 -13 C 84.9375 -9.675781 86.75 -7.003906 88.65625 -4.984375 Z M 88.65625 -4.984375 "/></g></g></g><g fill="#272727" fill-opacity="1"><g transform="translate(121.986289, 230.892555)"><g><path d="M 38.453125 -9.796875 C 38.453125 -7.660156 39.160156 -5.582031 40.578125 -3.5625 C 42.003906 -1.539062 43.726562 -0.351562 45.75 0 L 4.453125 0 C 6.472656 -0.351562 8.191406 -1.539062 9.609375 -3.5625 C 11.035156 -5.582031 11.75 -7.660156 11.75 -9.796875 L 11.75 -73.171875 C 11.75 -75.421875 11.035156 -77.523438 9.609375 -79.484375 C 8.191406 -81.441406 6.472656 -82.597656 4.453125 -82.953125 L 34.890625 -87.40625 L 35.421875 -87.40625 C 37.441406 -87.40625 38.453125 -86.394531 38.453125 -84.375 Z M 25.09375 -97.015625 C 21.300781 -97.015625 18.066406 -98.347656 15.390625 -101.015625 C 12.722656 -103.691406 11.390625 -106.925781 11.390625 -110.71875 C 11.390625 -114.519531 12.722656 -117.785156 15.390625 -120.515625 C 18.066406 -123.242188 21.300781 -124.609375 25.09375 -124.609375 C 28.894531 -124.609375 32.160156 -123.242188 34.890625 -120.515625 C 37.617188 -117.785156 38.984375 -114.519531 38.984375 -110.71875 C 38.984375 -108.820312 38.625 -107.039062 37.90625 -105.375 C 37.195312 -103.71875 36.21875 -102.265625 34.96875 -101.015625 C 33.726562 -99.773438 32.25 -98.796875 30.53125 -98.078125 C 28.8125 -97.367188 27 -97.015625 25.09375 -97.015625 Z M 25.09375 -97.015625 "/></g></g></g><g fill="#272727" fill-opacity="1"><g transform="translate(159.724802, 230.892555)"><g><path d="M 38.453125 -95.765625 L 38.453125 -9.796875 C 38.453125 -7.660156 39.160156 -5.582031 40.578125 -3.5625 C 42.003906 -1.539062 43.726562 -0.351562 45.75 0 L 4.453125 0 C 6.472656 -0.351562 8.191406 -1.539062 9.609375 -3.5625 C 11.035156 -5.582031 11.75 -7.660156 11.75 -9.796875 L 11.75 -99.515625 C 11.75 -102.003906 12.398438 -104.523438 13.703125 -107.078125 C 15.015625 -109.628906 16.828125 -112.0625 19.140625 -114.375 C 21.453125 -116.6875 24.117188 -118.703125 27.140625 -120.421875 C 30.171875 -122.148438 33.46875 -123.367188 37.03125 -124.078125 C 34.894531 -123.484375 32.960938 -122.59375 31.234375 -121.40625 C 29.515625 -120.21875 28.65625 -118.613281 28.65625 -116.59375 C 28.65625 -114.820312 29.128906 -113.25 30.078125 -111.875 C 31.035156 -110.507812 32.101562 -109.203125 33.28125 -107.953125 C 34.46875 -106.710938 35.566406 -105.441406 36.578125 -104.140625 C 37.585938 -102.835938 38.210938 -101.296875 38.453125 -99.515625 Z M 48.59375 -124.078125 C 52.507812 -123.484375 56.21875 -122.351562 59.71875 -120.6875 C 63.21875 -119.03125 66.273438 -117.046875 68.890625 -114.734375 C 71.503906 -112.421875 73.582031 -109.925781 75.125 -107.25 C 76.664062 -104.582031 77.4375 -102.003906 77.4375 -99.515625 C 77.4375 -95.710938 76.070312 -92.445312 73.34375 -89.71875 C 70.613281 -86.988281 67.347656 -85.625 63.546875 -85.625 C 59.753906 -85.625 56.519531 -86.988281 53.84375 -89.71875 C 51.175781 -92.445312 49.84375 -95.710938 49.84375 -99.515625 C 49.84375 -101.648438 50.226562 -103.457031 51 -104.9375 C 51.769531 -106.425781 52.660156 -107.757812 53.671875 -108.9375 C 54.679688 -110.125 55.570312 -111.28125 56.34375 -112.40625 C 57.113281 -113.539062 57.5 -114.9375 57.5 -116.59375 C 57.5 -118.613281 56.578125 -120.273438 54.734375 -121.578125 C 52.898438 -122.890625 50.851562 -123.722656 48.59375 -124.078125 Z M 38.453125 -62.3125 C 40.347656 -62.3125 42.1875 -62.695312 43.96875 -63.46875 C 45.75 -64.238281 47.347656 -65.273438 48.765625 -66.578125 C 50.191406 -67.878906 51.320312 -69.390625 52.15625 -71.109375 C 52.988281 -72.835938 53.40625 -74.648438 53.40625 -76.546875 L 53.40625 -47.890625 C 53.40625 -49.785156 52.988281 -51.59375 52.15625 -53.3125 C 51.320312 -55.03125 50.191406 -56.570312 48.765625 -57.9375 C 47.347656 -59.300781 45.75 -60.367188 43.96875 -61.140625 C 42.1875 -61.921875 40.347656 -62.3125 38.453125 -62.3125 Z M 38.453125 -62.3125 "/></g></g></g><g fill="#272727" fill-opacity="1"><g transform="translate(229.149803, 230.892555)"><g><path d="M 84.90625 22.96875 C 84.90625 26.519531 83.925781 29.71875 81.96875 32.5625 C 80.007812 35.414062 77.546875 37.703125 74.578125 39.421875 C 71.617188 41.148438 68.328125 42.222656 64.703125 42.640625 C 61.085938 43.054688 57.675781 42.609375 54.46875 41.296875 C 57.320312 42.242188 59.90625 42.476562 62.21875 42 C 64.53125 41.53125 65.6875 40.46875 65.6875 38.8125 C 65.6875 37.625 65.179688 36.523438 64.171875 35.515625 C 63.160156 34.503906 62.179688 33.523438 61.234375 32.578125 C 58.628906 29.960938 57.328125 26.757812 57.328125 22.96875 C 57.328125 21.0625 57.679688 19.25 58.390625 17.53125 C 59.097656 15.8125 60.078125 14.328125 61.328125 13.078125 C 62.578125 11.835938 64.03125 10.859375 65.6875 10.140625 C 67.351562 9.429688 69.132812 9.078125 71.03125 9.078125 C 74.820312 9.078125 78.082031 10.441406 80.8125 13.171875 C 83.539062 15.898438 84.90625 19.164062 84.90625 22.96875 Z M 108.59375 -87.40625 C 106.21875 -87.050781 103.84375 -86.25 101.46875 -85 C 99.09375 -83.757812 96.835938 -82.21875 94.703125 -80.375 C 92.566406 -78.53125 90.609375 -76.507812 88.828125 -74.3125 C 87.046875 -72.125 85.625 -69.960938 84.5625 -67.828125 C 85.382812 -69.484375 85.796875 -71.441406 85.796875 -73.703125 C 85.796875 -77.492188 84.460938 -80.722656 81.796875 -83.390625 C 79.128906 -86.066406 75.894531 -87.40625 72.09375 -87.40625 Z M 47.53125 9.796875 C 48.832031 7.179688 49.484375 4.332031 49.484375 1.25 C 49.484375 -1.601562 48.832031 -4.453125 47.53125 -7.296875 L 13.171875 -79.578125 C 12.335938 -81.234375 11.085938 -82.890625 9.421875 -84.546875 C 7.765625 -86.210938 6.109375 -87.164062 4.453125 -87.40625 L 34.890625 -87.40625 C 37.972656 -87.40625 40.109375 -86.21875 41.296875 -83.84375 L 66.578125 -30.96875 Z M 47.53125 9.796875 "/></g></g></g><g clip-path="url(#5094bc990e)"><path fill="#272727" d="M 337.492188 108.074219 C 327.738281 109.871094 326.28125 111.328125 324.488281 121.082031 C 322.691406 111.328125 321.234375 109.871094 311.480469 108.074219 C 321.234375 106.28125 322.691406 104.824219 324.488281 95.070312 C 326.28125 104.824219 327.738281 106.28125 337.492188 108.074219 Z M 337.492188 108.074219 " fill-opacity="1" fill-rule="nonzero"/></g></svg>